<svg width="20" height="23" viewBox="0 0 20 23" fill="none" xmlns="http://www.w3.org/2000/svg">
<path d="M9.24027 0.65484L2.11968 3.81618C1.38728 4.14146 0.90918 4.87335 0.90918 5.67639V10.454C0.90918 16.0956 4.81533 21.3713 10.0642 22.6521C15.3131 21.3713 19.2193 16.0956 19.2193 10.454V5.67639C19.2193 4.87335 18.7412 4.14146 18.0088 3.81618L10.8882 0.65484C10.3694 0.421043 9.75906 0.421043 9.24027 0.65484ZM7.30754 15.8313L4.67292 13.1986C4.57874 13.1044 4.50404 12.9927 4.45307 12.8698C4.4021 12.7468 4.37587 12.615 4.37587 12.4819C4.37587 12.3488 4.4021 12.217 4.45307 12.0941C4.50404 11.9711 4.57874 11.8594 4.67292 11.7653C4.7671 11.6712 4.8789 11.5965 5.00195 11.5456C5.125 11.4947 5.25688 11.4684 5.39007 11.4684C5.52325 11.4684 5.65513 11.4947 5.77818 11.5456C5.90123 11.5965 6.01303 11.6712 6.10721 11.7653L8.02977 13.6763L14.0111 7.69924C14.1052 7.60513 14.217 7.53048 14.3401 7.47955C14.4631 7.42862 14.595 7.4024 14.7282 7.4024C14.8614 7.4024 14.9933 7.42862 15.1163 7.47955C15.2394 7.53048 15.3512 7.60513 15.4454 7.69924C15.5395 7.79335 15.6142 7.90508 15.6652 8.02804C15.7162 8.151 15.7424 8.28279 15.7424 8.41588C15.7424 8.54897 15.7162 8.68076 15.6652 8.80372C15.6142 8.92668 15.5395 9.03841 15.4454 9.13252L8.74183 15.8313C8.64772 15.9255 8.53594 16.0003 8.41288 16.0513C8.28983 16.1023 8.15791 16.1286 8.02468 16.1286C7.89146 16.1286 7.75954 16.1023 7.63649 16.0513C7.51343 16.0003 7.40165 15.9255 7.30754 15.8313Z" fill="#4ECB71"/>
</svg>
